# xmcd CD database file
#
# Track frame offsets:
#	182
#	36112
#	72960
#	113477
#	133057
#	153082
#	171765
#	210047
#
# Disc length: 3277 seconds
#
# Revision: 0
# Processed by: cddbd v1.5.1PL0 Copyright (c) Steve Scherf et al.
# Submitted via: CDex 1.51
#
DISCID=5c0ccb08
DTITLE=Italian Big Band - Italian Big Band
DYEAR=1995
DGENRE=Jazz
TTITLE0=Italian Medley n2
TTITLE1=Carlo Alberto Rossi Medley
TTITLE2=Bruno Martino Suite
TTITLE3=Kramer Medley
TTITLE4=Stoccolma Malinconica
TTITLE5=D'Anzi Medley
TTITLE6=Senza Fine/Nel Blu Dipinto Di Blu
TTITLE7=Italian Medley n3
EXTD=YEAR: 1995
EXTT0=
EXTT1=
EXTT2=
EXTT3=
EXTT4=
EXTT5=
EXTT6=
EXTT7=
PLAYORDER=
